<svg width="94" height="92" viewBox="0 0 94 92" fill="none" xmlns="http://www.w3.org/2000/svg">
<path fill-rule="evenodd" clip-rule="evenodd" d="M57.8735 6.67113C56.8898 4.67309 55.3474 2.98678 53.4239 1.8065C51.5005 0.626217 49.2742 0 47.0018 0C44.7293 0 42.5031 0.626217 40.5797 1.8065C38.6562 2.98678 37.1138 4.67309 36.1301 6.67113L1.43296 73.2425C-2.71821 81.1902 2.5274 91.744 12.3004 91.744H81.6989C91.4762 91.744 96.7132 81.1943 92.5706 73.2425L57.8735 6.67113ZM47.0018 29.1966C48.1356 29.1966 49.223 29.6359 50.0248 30.4179C50.8265 31.1999 51.2769 32.2605 51.2769 33.3664V54.2155C51.2769 55.3214 50.8265 56.3821 50.0248 57.164C49.223 57.946 48.1356 58.3854 47.0018 58.3854C45.868 58.3854 44.7806 57.946 43.9788 57.164C43.1771 56.3821 42.7266 55.3214 42.7266 54.2155V33.3664C42.7266 32.2605 43.1771 31.1999 43.9788 30.4179C44.7806 29.6359 45.868 29.1966 47.0018 29.1966ZM47.0018 64.6401C48.1356 64.6401 49.223 65.0794 50.0248 65.8614C50.8265 66.6434 51.2769 67.704 51.2769 68.8099V70.8949C51.2769 72.0008 50.8265 73.0614 50.0248 73.8434C49.223 74.6254 48.1356 75.0647 47.0018 75.0647C45.868 75.0647 44.7806 74.6254 43.9788 73.8434C43.1771 73.0614 42.7266 72.0008 42.7266 70.8949V68.8099C42.7266 67.704 43.1771 66.6434 43.9788 65.8614C44.7806 65.0794 45.868 64.6401 47.0018 64.6401Z" fill="#EA4848"/>
</svg>
